<?xml version="1.0" encoding="UTF-8"?>
<svg width="20px" height="20px" viewBox="0 0 20 20" version="1.1" xmlns="http://www.w3.org/2000/svg" xmlns:xlink="http://www.w3.org/1999/xlink">
    <!-- Generator: Sketch 59.1 (86144) - https://sketch.com -->
    <title>Artboard</title>
    <desc>Created with Sketch.</desc>
    <g id="Artboard" stroke="none" stroke-width="1" fill="none" fill-rule="evenodd">
        <path d="M10,0 C15.5228475,0 20,4.4771525 20,10 C20,15.5228475 15.5228475,20 10,20 C4.4771525,20 0,15.5228475 0,10 C0,4.4771525 4.4771525,0 10,0 Z M8.85791638,4.00185243 C8.40713628,4.02213435 7.97011622,4.15937917 7.59210196,4.39937757 C7.24704199,4.61402145 6.91328907,4.84543317 6.59210856,5.09273537 L5.64274775,5.80766431 L3.76617786,7.25601171 L2.83263973,8.00791973 L2.59846406,8.20205991 L2.48137622,8.30683398 C2.43385314,8.3500289 2.38944437,8.39636258 2.34846571,8.44550554 C2.18919985,8.63799356 2.08057355,8.86541861 2.0320121,9.10804744 C1.98121789,9.35019412 1.99098629,9.60068628 2.06049293,9.83838432 C2.13124923,10.0844685 2.27422516,10.3050919 2.47188262,10.4731919 L2.52251519,10.5070894 C2.46126743,10.5778375 2.40721684,10.6542082 2.36112385,10.7351271 C2.11799181,11.1579509 2.10146286,11.6695646 2.31682035,12.1064347 C2.39884782,12.2629632 2.51429707,12.4006028 2.65542571,12.510123 L2.62378035,12.5409389 C2.54806784,12.6358987 2.48432206,12.7393569 2.43390818,12.849098 C2.21988441,13.2847895 2.24728695,13.7964319 2.50669251,14.2080793 C2.57554214,14.3147729 2.66217145,14.4095462 2.76301993,14.488504 C2.85953392,14.5628248 2.96599785,14.6239921 3.07947354,14.6703178 C3.2693457,14.7504391 3.44655972,14.8213157 3.62693828,14.8921923 C4.35161703,15.1756986 5.07313126,15.4376338 5.80097455,15.6995689 C6.52881784,15.9615041 7.2534966,16.2172761 7.98450443,16.4638033 C8.73686363,16.7644622 9.53392867,16.9454999 10.3452483,17 C10.8886042,16.999242 11.4233808,16.8679936 11.9022001,16.6178828 C12.3301073,16.373708 12.7442058,16.1072785 13.1426982,15.8197509 C13.9338322,15.2804727 14.7091436,14.728868 15.4812904,14.1741818 L16.6395105,13.3359892 L17.2186206,12.9107298 C17.4519553,12.7553191 17.6501208,12.5550064 17.8008953,12.322146 C17.9638714,12.0574505 18.029702,11.7467036 17.9876029,11.4408112 C17.93769,11.1402609 17.7927798,10.8623458 17.5730487,10.645761 L17.4812771,10.5656396 L17.4812771,10.5502317 C17.5939564,10.4505649 17.6909838,10.3353149 17.7692499,10.2081751 C17.9387627,9.94217361 18.0132985,9.62909566 17.9812738,9.31759557 C17.9393741,9.01480775 17.8010286,8.73243595 17.5857068,8.51021893 C17.5445066,8.46702222 17.5000819,8.42685198 17.4527963,8.39003691 C17.5127223,8.33634853 17.5687629,8.2786879 17.6205167,8.21746786 C17.9603567,7.83479743 18.0793276,7.31114409 17.9369703,6.82458908 C17.7815747,6.36110677 17.418318,5.9914987 16.9496351,5.81999067 C16.5294522,5.68154064 16.085149,5.626018 15.6426817,5.65666638 C15.2249629,5.65666638 14.8135732,5.73062455 14.4243353,5.78301158 L13.2407988,5.94941746 L11.1775213,6.23600535 L11.0003073,5.37932326 C10.9594045,5.14784798 10.8711611,4.92673428 10.7408153,4.72910773 C10.5944397,4.53467406 10.4052125,4.37462476 10.1870215,4.26070601 C9.97820505,4.15084412 9.75107918,4.07781541 9.51613988,4.0449947 C9.29879504,4.00897337 9.0782579,3.9945186 8.85791638,4.00185243 Z M17.0414066,10.9323488 C17.0878617,10.9679086 17.1322347,11.0059745 17.1743171,11.0463677 C17.4108887,11.2986932 17.41767,11.6830196 17.1901398,11.9431104 C17.0713155,12.0892364 16.930484,12.2170261 16.7724211,12.322146 L16.19964,12.7381607 L15.0382553,13.5732717 L12.7059922,15.2065145 C12.3351501,15.4772099 11.9495705,15.7282112 11.5509366,15.9584225 C11.1820013,16.1581303 10.7673454,16.2641112 10.3452483,16.2665815 C9.99021698,16.2610396 9.63728261,16.2123856 9.29462236,16.1217468 C8.94335885,16.0385439 8.57627267,15.9152802 8.21235102,15.8135878 C7.48450773,15.5773325 6.75666444,15.3338869 6.02882114,15.0832509 C5.30414239,14.8336421 4.57629909,14.5809517 3.86427848,14.3128533 C3.68706446,14.2481399 3.50668591,14.1772634 3.3389655,14.1094684 C3.27218585,14.0868699 3.20925354,14.0546705 3.15225787,14.0139391 C3.09763902,13.9722974 3.05148912,13.9210864 3.01618282,13.8629412 C2.85877503,13.626598 2.83380854,13.3290643 2.94972756,13.0709725 C2.98089679,13.0075287 3.01909836,12.9475949 3.06365086,12.8922402 L3.13643519,12.8182821 L3.18390323,12.781303 L3.4180789,12.8768323 C4.14908673,13.1695834 4.88009456,13.4407633 5.61426692,13.7119432 C6.34843929,13.9831232 7.08577619,14.2481399 7.82944216,14.5039119 C8.59244246,14.8154277 9.40279723,15.0028163 10.2281605,15.0585982 C10.7828399,15.0585939 11.3280272,14.918437 11.8104285,14.6518282 C12.2472723,14.3977332 12.6698165,14.1210203 13.0762429,13.8228805 C13.873706,13.2620311 14.6627304,12.6909097 15.4433159,12.1095163 L16.6173588,11.2405079 L17.0414066,10.9323488 Z M17.0160903,8.75674615 C17.0696881,8.79414338 17.118551,8.83758797 17.161659,8.88617294 C17.412986,9.14892845 17.4251739,9.55245424 17.1901398,9.82913955 C17.0604969,9.98551401 16.9080365,10.122558 16.7376112,10.2359095 L16.1585011,10.6673321 L14.9749646,11.5240142 L12.6142207,13.225052 C12.2186537,13.4962319 11.8199221,13.8043909 11.4433423,14.0108575 C11.0733418,14.2180859 10.6549639,14.3294875 10.2281605,14.3344245 C9.86472821,14.326378 9.50399437,14.2714583 9.15538277,14.1711002 C8.80095473,14.0848156 8.43070401,13.9584704 8.06045329,13.8382884 C7.32311639,13.5948428 6.58577949,13.3390708 5.84527805,13.0832988 C5.10477662,12.8275268 4.37693332,12.5625101 3.6554191,12.285167 C3.47504055,12.217372 3.29466199,12.1464954 3.13327065,12.0725372 C3.0178497,12.0225663 2.92152158,11.9384668 2.85795601,11.8321732 C2.71729869,11.5728314 2.71729869,11.2625672 2.85795601,11.0032254 C2.90642477,10.9174568 2.97080347,10.8411825 3.04782818,10.7782693 L3.08896715,10.7967589 L3.64592549,11.021715 C5.13325744,11.6010539 6.62058939,12.149577 8.13640216,12.6672841 C8.52658131,12.8047332 8.92632595,12.9149225 9.33259679,12.9970143 C9.76574663,13.0865431 10.212323,13.0959514 10.6490438,13.0247486 C11.0868096,12.9447065 11.504057,12.7813444 11.8768838,12.5440205 C12.2408054,12.3159829 12.5477654,12.081782 12.8737126,11.8506627 C14.1521852,10.9200225 15.4179996,9.97911027 16.6711559,9.02792609 L17.0160903,8.75674615 Z M8.67753783,4.61508889 L8.67753783,4.65514956 L8.90538442,6.00796767 C8.97816875,6.45787984 9.05411762,6.90779202 9.15854731,7.36386737 C9.18265055,7.4907864 9.22084932,7.61477819 9.2724706,7.7336582 C9.34808722,7.8618419 9.45729024,7.9681826 9.58892421,8.04181722 C9.82263849,8.17453877 10.0873971,8.24668565 10.3579065,8.25136535 C10.605116,8.25715327 10.8522628,8.23752792 11.0952434,8.19281514 L11.7882768,8.08495948 L17.3325439,7.20362468 L17.3736829,7.20362468 C17.361876,7.41066532 17.2716781,7.60609522 17.12052,7.75214774 C17.0655411,7.8098807 17.0051535,7.8624955 16.9401415,7.90930884 L16.7122949,8.08187789 L16.240779,8.43626077 C14.9749646,9.4038801 13.7091502,10.3530099 12.4433357,11.2836501 C12.1268821,11.5116878 11.8104285,11.7551334 11.4939749,11.946192 C11.1993382,12.1368973 10.869344,12.2698313 10.5224623,12.337554 C9.84841617,12.4608176 9.09525658,12.2605142 8.36424876,12.0109054 C6.87375227,11.5055246 5.37376218,10.9662463 3.89908838,10.4023153 L3.35162364,10.186604 L3.08896715,10.0756668 L3.02567643,10.0479325 L2.98453746,10.0263613 C2.95828224,10.0116912 2.93385838,9.99411193 2.91175313,9.97397429 C2.71404009,9.78239025 2.62946333,9.50631056 2.68707107,9.24055582 C2.71531039,9.10164803 2.77594087,8.97091374 2.86428509,8.85843863 L2.94972756,8.76907251 L3.05415725,8.6766248 L3.27251024,8.49172939 L4.18706116,7.75522933 L6.04464382,6.30071874 C6.67755104,5.82923544 7.29147103,5.31769146 7.92437824,4.92324791 C8.15183048,4.7726725 8.40790225,4.66789945 8.67753783,4.61508889 Z M9.03196586,4.61817048 C9.32192427,4.61029715 9.60988045,4.66722219 9.87373246,4.78457635 C10.1582258,4.92403275 10.348518,5.19674491 10.3768937,5.50566846 L10.6079048,6.63353049 L10.6522083,6.94168951 L10.6711955,6.94168951 L10.6711955,6.95709746 L10.9718265,6.89854724 L13.3325704,6.55957232 L14.5129423,6.39316645 C14.8955562,6.33231989 15.2810566,6.29015212 15.667998,6.26682125 C16.0219216,6.2364574 16.3784752,6.2773671 16.7154594,6.38700327 C16.9095098,6.45885254 17.0765476,6.5845547 17.1966525,6.7472907 L17.2629242,6.8492418 L11.7059988,7.73057661 L11.0129654,7.84151385 C10.7958586,7.87999747 10.5753845,7.89754467 10.3547419,7.89390089 C10.1549656,7.89312384 9.95877282,7.84217709 9.78512545,7.74598456 C9.62689864,7.64737367 9.58892421,7.53027324 9.5351271,7.28682761 C9.38322937,6.63276009 9.25625236,5.95962522 9.14218072,5.28822375 L9.03196586,4.61817048 Z" id="Combined-Shape" fill="#A6AAAF"></path>
    </g>
</svg>